<!-- Generator: Adobe Illustrator 22.1.0, SVG Export Plug-In  -->
<svg version="1.1"
	 xmlns="http://www.w3.org/2000/svg" xmlns:xlink="http://www.w3.org/1999/xlink" xmlns:a="http://ns.adobe.com/AdobeSVGViewerExtensions/3.0/"
	 x="0px" y="0px" width="13.5px" height="10.8px" viewBox="0 0 13.5 10.8" style="enable-background:new 0 0 13.5 10.8;"
	 xml:space="preserve">
<style type="text/css">
	.st0{fill:#727171;}
</style>
<defs>
</defs>
<g>
	<path class="st0" d="M13.2,10.8H0.3c-0.2,0-0.3-0.2-0.3-0.3V0.3C0,0.2,0.2,0,0.3,0h12.9c0.2,0,0.3,0.2,0.3,0.3v10.1
		C13.5,10.6,13.4,10.8,13.2,10.8z M0.7,10.1h12.2V0.7H0.7V10.1z"/>
	<path class="st0" d="M11.8,9.3H1.7c-0.1,0-0.2-0.1-0.2-0.2V1.7c0-0.1,0.1-0.2,0.2-0.2h10.1c0.1,0,0.2,0.1,0.2,0.2v7.4
		C12.1,9.2,12,9.3,11.8,9.3z M1.9,8.8h9.7V1.9H1.9V8.8z"/>
	<path class="st0" d="M4.7,7.1c-0.1,0-0.1,0-0.2-0.1c-0.1-0.1-0.1-0.2,0-0.3l3.4-3.5c0.1-0.1,0.2-0.1,0.3,0c0.1,0.1,0.1,0.2,0,0.3
		L4.8,7C4.8,7.1,4.7,7.1,4.7,7.1z"/>
	<path class="st0" d="M6.6,7.7c-0.1,0-0.1,0-0.2-0.1c-0.1-0.1-0.1-0.2,0-0.3l2.3-2.4C8.8,4.8,9,4.8,9,4.9c0.1,0.1,0.1,0.2,0,0.3
		L6.8,7.6C6.7,7.6,6.7,7.7,6.6,7.7z"/>
</g>
</svg>
