<!-- Generator: Adobe Illustrator 22.1.0, SVG Export Plug-In  -->
<svg version="1.1"
	 xmlns="http://www.w3.org/2000/svg" xmlns:xlink="http://www.w3.org/1999/xlink" xmlns:a="http://ns.adobe.com/AdobeSVGViewerExtensions/3.0/"
	 x="0px" y="0px" width="13.4px" height="10.6px" viewBox="0 0 13.4 10.6" style="enable-background:new 0 0 13.4 10.6;"
	 xml:space="preserve">
<style type="text/css">
	.st0{fill:#727171;}
</style>
<defs>
</defs>
<g>
	<g>
		<path class="st0" d="M2.2,8.9H1.7C1.3,8.9,1,8.6,1,8.2v-4c0-0.4,0.3-0.7,0.7-0.7h0.6c0.4,0,0.7,0.3,0.7,0.7v4
			C2.9,8.6,2.6,8.9,2.2,8.9z M1.7,4C1.5,4,1.5,4.1,1.5,4.2v4c0,0.1,0.1,0.2,0.2,0.2h0.6c0.1,0,0.2-0.1,0.2-0.2v-4
			C2.4,4.1,2.3,4,2.2,4H1.7z"/>
		<path class="st0" d="M5.4,8.9H4.8c-0.4,0-0.7-0.3-0.7-0.7V0.7C4.1,0.3,4.5,0,4.8,0h0.6c0.4,0,0.7,0.3,0.7,0.7v7.5
			C6.1,8.6,5.8,8.9,5.4,8.9z M4.8,0.5c-0.1,0-0.2,0.1-0.2,0.2v7.5c0,0.1,0.1,0.2,0.2,0.2h0.6c0.1,0,0.2-0.1,0.2-0.2V0.7
			c0-0.1-0.1-0.2-0.2-0.2H4.8z"/>
		<path class="st0" d="M8.6,8.9H8c-0.4,0-0.7-0.3-0.7-0.7V5.6c0-0.4,0.3-0.7,0.7-0.7h0.6c0.4,0,0.7,0.3,0.7,0.7v2.6
			C9.3,8.6,9,8.9,8.6,8.9z M8,5.3c-0.1,0-0.2,0.1-0.2,0.2v2.6c0,0.1,0.1,0.2,0.2,0.2h0.6c0.1,0,0.2-0.1,0.2-0.2V5.6
			c0-0.1-0.1-0.2-0.2-0.2H8z"/>
		<path class="st0" d="M11.8,8.9h-0.6c-0.4,0-0.7-0.3-0.7-0.7V2.8c0-0.4,0.3-0.7,0.7-0.7h0.6c0.4,0,0.7,0.3,0.7,0.7v5.4
			C12.5,8.6,12.2,8.9,11.8,8.9z M11.2,2.6c-0.1,0-0.2,0.1-0.2,0.2v5.4c0,0.1,0.1,0.2,0.2,0.2h0.6c0.1,0,0.2-0.1,0.2-0.2V2.8
			c0-0.1-0.1-0.2-0.2-0.2H11.2z"/>
	</g>
	<path class="st0" d="M13,10.6H0.4c-0.2,0-0.4-0.2-0.4-0.4s0.2-0.4,0.4-0.4H13c0.2,0,0.4,0.2,0.4,0.4S13.3,10.6,13,10.6z"/>
</g>
</svg>
