<!-- Generator: Adobe Illustrator 22.1.0, SVG Export Plug-In  -->
<svg version="1.1"
	 xmlns="http://www.w3.org/2000/svg" xmlns:xlink="http://www.w3.org/1999/xlink" xmlns:a="http://ns.adobe.com/AdobeSVGViewerExtensions/3.0/"
	 x="0px" y="0px" width="760.4px" height="101.7px" viewBox="0 0 760.4 101.7" style="enable-background:new 0 0 760.4 101.7;"
	 xml:space="preserve">
<style type="text/css">
	.st0{fill:#7FD6DB;}
	.st1{fill:#000033;}
</style>
<defs>
</defs>
<g>
	<rect x="130.4" y="3.4" class="st0" width="94.9" height="94.9"/>
	<path class="st0" d="M101.7,50.8c0,28.1-22.8,50.8-50.8,50.8C22.8,101.7,0,78.9,0,50.8C0,22.8,22.8,0,50.8,0
		C78.9,0,101.7,22.8,101.7,50.8"/>
	<g>
		<path class="st1" d="M324.3,11.2h26.4c14,0,24.5,8.8,24.5,23.4s-10.5,23.7-24.5,23.7h-21.5v33.3h-4.9V11.2z M350.5,53.7
			c11.7,0,19.5-7,19.5-19.1c0-12.1-7.8-18.8-19.5-18.8h-21.3v37.9H350.5z"/>
		<path class="st1" d="M401.4,11.2h4.9V49h51V11.2h4.9v80.4h-4.9v-38h-51v38h-4.9V11.2z"/>
		<path class="st1" d="M513.5,56.7l-27.3-45.5h5.6l19.1,31.7c2.3,3.9,4.9,9.1,4.9,9.1h0.2c0,0,2.5-5.2,4.9-9.1L540,11.2h5.6
			l-27.2,45.5v34.9h-4.9V56.7z"/>
		<path class="st1" d="M566.7,79.2c0,0,8.2,9,21.5,9c10,0,17.9-6.2,17.9-15.9c0-22.9-41.1-16.5-41.1-41.7c0-10.7,9.5-20.8,24.1-20.8
			c13.1,0,20.5,7.5,20.5,7.5l-2.8,4.3c0,0-6.9-6.9-17.6-6.9c-11.9,0-19.1,8-19.1,15.9c0,21.3,41.1,14.7,41.1,41.6
			c0,11.6-9,20.9-23.3,20.9c-15.9,0-24.6-10-24.6-10L566.7,79.2z"/>
		<path class="st1" d="M639.4,11.2h44v4.6h-39.1v33h32.1v4.6h-32.1V87h41.2v4.6h-46.2V11.2z"/>
		<path class="st1" d="M714.2,11.2h44v4.6h-39.1v33h32.1v4.6h-32.1V87h41.2v4.6h-46.2V11.2z"/>
	</g>
</g>
</svg>
